<?xml version="1.0"?> <svg xmlns="http://www.w3.org/2000/svg" xmlns:xlink="http://www.w3.org/1999/xlink" version="1.1" id="Capa_1" x="0px" y="0px" viewBox="0 0 512 512" style="enable-background:new 0 0 512 512;" xml:space="preserve" width="512px" height="512px"><g><g> <g> <path d="M84.44,221.428c-0.013,0-23.362-0.009-23.378-0.009c-1.655,0-3,1.343-3,3v55.247c0,1.657,1.344,3,3,3h6.566    c1.656,0,3-1.343,3-3v-49.763l10.735-0.019c4.617,0,5.587,6.022,5.587,11.075c0,7.033-2.035,11.068-5.579,11.068l-5.201-0.007    c-1.497-0.073-3.004,1.248-3.004,3v2.475c0,1.657,1.343,3,3,3c8.192,0,13.414,0.963,18.546-4.819    C103.241,246.111,101.048,221.428,84.44,221.428z" data-original="#000000" class="active-path" data-old_color="#000000" fill="#2C2E37"/> </g> </g><g> <g> <path d="M113.381,221.417h-6.569c-1.657,0-3,1.343-3,3v55.247c0,1.657,1.343,3,3,3h6.569c1.656,0,3-1.343,3-3v-55.247    C116.381,222.76,115.037,221.417,113.381,221.417z" data-original="#000000" class="active-path" data-old_color="#000000" fill="#2C2E37"/> </g> </g><g> <g> <path d="M157.763,235.557h-16.409c-21.277,0-19.39,18.502-19.362,32.606c0,8.402,5.283,14.502,12.564,14.502h8.098    c1.657,0,3-1.343,3-3v-2.458c0-1.657-1.343-3-3-3h-5.217c-0.866-0.016-2.893-0.053-2.897-5.317    c0-27.363,0.644-24.867,13.665-24.863v35.638c-0.002,1.658,1.341,3.001,2.998,3.001h6.561c1.656,0,3-1.343,3-3v-41.107    C160.763,236.9,159.419,235.557,157.763,235.557z" data-original="#000000" class="active-path" data-old_color="#000000" fill="#2C2E37"/> </g> </g><g> <g> <path d="M243.656,250.884c-7.927-9.743-21.051,0.802-21.051-12.804c0-7.245,3.504-8.174,6.557-8.174h12.1c1.656,0,3-1.343,3-3    v-2.487c0-1.657-1.344-3-3-3h-13.536c-10.217,0-17.271,6.187-17.271,18.161c0,9.366,5.774,16.092,14.364,16.738l5.027,0.385    c4.447,0.349,5.238,4.97,5.238,9.341c0.001,5.42-2.262,8.168-6.727,8.168h-12.638c-1.657,0-3,1.344-3,3v2.455c0,1.657,1.343,3,3,3    h16.101C250.388,282.666,250.363,259.225,243.656,250.884z" data-original="#000000" class="active-path" data-old_color="#000000" fill="#2C2E37"/> </g> </g><g> <g> <path d="M317.861,238.557c0-1.656-1.344-2.999-3-2.999h-16.392c-21.227,0-19.374,18.379-19.374,32.609    c0,8.266,5.402,14.498,12.565,14.498h8.099c1.657,0,3-1.343,3-3v-2.458c0-1.657-1.343-3-3-3c-9.015,0.001-8.104,1.619-8.104-15.14    c0-17.366,3.765-15.043,13.651-15.04c-0.011,38.679-0.347,36.542,0.869,37.76c0.563,0.563,1.326,0.879,2.121,0.879    c6.944,0,7.563,0.258,8.7-0.879C318.209,280.571,317.873,283.319,317.861,238.557z" data-original="#000000" class="active-path" data-old_color="#000000" fill="#2C2E37"/> </g> </g><g> <g> <path d="M274.003,235.558h-8.301v-4.652c0-1.657-1.343-3-3-3h-6.555c-1.657,0-3,1.343-3,3v37.273    c0.001,8.394,5.287,14.486,12.572,14.486h5.489c1.657,0,3-1.343,3-3v-2.458c0-1.657-1.343-3-3-3    c-3.392,0.001-5.505,0.729-5.505-4.853v-25.34c2.099,0.006,3.986,0.003,8.304,0c1.656-0.001,2.997-1.344,2.997-3v-2.455    C277.003,236.901,275.66,235.558,274.003,235.558z" data-original="#000000" class="active-path" data-old_color="#000000" fill="#2C2E37"/> </g> </g><g> <g> <path d="M345.274,235.558h-8.275v-4.652c0-1.657-1.343-3-3-3h-6.579c-1.657,0-3,1.343-3,3v37.273    c0,8.258,5.41,14.486,12.586,14.486h5.49c1.657,0,3-1.343,3-3v-2.458c0-1.657-1.343-3-3-3c-6.762,0.003-5.509,2.377-5.509-30.193    c2.179,0.006,4.227,0.003,8.291,0c1.656-0.002,2.997-1.345,2.997-3v-2.455C348.274,236.901,346.931,235.558,345.274,235.558z" data-original="#000000" class="active-path" data-old_color="#000000" fill="#2C2E37"/> </g> </g><g> <g> <path d="M362.163,235.557h-6.569c-1.657,0-3,1.343-3,3v41.107c0,1.657,1.343,3,3,3h6.569c1.656,0,3-1.343,3-3v-41.107    C365.163,236.9,363.819,235.557,362.163,235.557z" data-original="#000000" class="active-path" data-old_color="#000000" fill="#2C2E37"/> </g> </g><g> <g> <path d="M362.163,221.418h-6.569c-1.657,0-3,1.343-3,3v4.906c0,1.656,1.343,3,3,3h6.569c1.656,0,3-1.343,3-3v-4.906    C365.163,222.761,363.819,221.418,362.163,221.418z" data-original="#000000" class="active-path" data-old_color="#000000" fill="#2C2E37"/> </g> </g><g> <g> <path d="M434.564,235.557h-16.397c-1.656,0-2.999,1.343-3,2.999c-0.011,44.636-0.359,42.001,0.868,43.23    c0.563,0.563,1.325,0.879,2.122,0.879c0.021,0,6.586,0,6.586,0c1.756,0,3.183-1.517,2.98-3.35l-0.016-35.288    c15.05-0.004,13.703-2.565,13.674,35.636c-0.002,1.653,1.34,3.002,3,3.002h6.556c1.656,0,3-1.343,3-3v-20.598    C453.938,252.031,453.938,235.557,434.564,235.557z" data-original="#000000" class="active-path" data-old_color="#000000" fill="#2C2E37"/> </g> </g><g> <g> <path d="M390.18,235.558c-20.227,0-20.227,16.518-20.227,23.57c0,6.447,0,23.573,20.219,23.573    c20.238,0,20.238-16.519,20.238-23.573C410.41,252.075,410.41,235.558,390.18,235.558z M390.179,274.236    c-4.927,0-7.628-1.843-7.628-15.107c0-13.534,2.866-15.104,7.628-15.104c2.917,0,4.08,0.753,4.825,1.482    c1.925,1.895,2.815,6.223,2.804,13.625C397.808,272.302,395.184,274.236,390.179,274.236z" data-original="#000000" class="active-path" data-old_color="#000000" fill="#2C2E37"/> </g> </g><g> <g> <path d="M207.427,236.874c-1.123-1.658-2.35-1.317-8.215-1.317c-1.24,0-2.352,0.762-2.799,1.919l-9.913,25.649l-8.685-25.534    c-0.414-1.216-1.557-2.034-2.841-2.034c-7.094,0-8.146-0.35-9.295,1.254c-1.237,1.731-1.581-0.753,13.822,44.428l-7.452,19.259    c-0.758,1.966,0.694,4.084,2.8,4.084c4.585,0,6.801,0.49,7.75-1.889C209.58,235.031,208.702,238.756,207.427,236.874z" data-original="#000000" class="active-path" data-old_color="#000000" fill="#2C2E37"/> </g> </g><g> <g> <path d="M492.499,155.046H273.501c-4.143,0-7.5,3.358-7.5,7.5c0,4.142,3.357,7.5,7.5,7.5h218.997c2.482,0,4.5,2.019,4.5,4.5    v67.063c0,4.142,3.358,7.5,7.5,7.5c4.143,0,7.5-3.358,7.5-7.5v-67.063C512,163.795,503.251,155.046,492.499,155.046z" data-original="#000000" class="active-path" data-old_color="#000000" fill="#2C2E37"/> </g> </g><g> <g> <path d="M504.5,269.112c-4.142,0-7.5,3.358-7.5,7.5v60.839c0,2.481-2.018,4.5-4.5,4.5H19.501c-2.481,0-4.5-2.019-4.5-4.5V174.548    c0-2.481,2.019-4.5,4.5-4.5h218.997c4.143,0,7.5-3.358,7.5-7.5c0-4.142-3.357-7.5-7.5-7.5H19.501    C8.749,155.046,0,163.795,0,174.548v162.905c0,10.754,8.749,19.501,19.501,19.501h472.998c10.753,0,19.501-8.748,19.501-19.501    v-60.839C512,272.471,508.642,269.112,504.5,269.112z" data-original="#000000" class="active-path" data-old_color="#000000" fill="#2C2E37"/> </g> </g></g> </svg>